# xmcd
#
# Track frame offsets:
#	150
#	14058
#	30575
#	45447
#	62423
#	76713
#	92618
#	107642
#	126084
#	141769
#	156119
#
# Disc length: 2301 seconds
#
# Revision: 1
# Processed by: cddbd v1.5.2PL0 Copyright (c) Steve Scherf et al.
# Submitted via: audiograbber 1.83.01
#
DISCID=7e08fb0b
DTITLE=Hank Sasaki - Tennessee and You
DYEAR=1900
DGENRE=Country
TTITLE0=Cowboy From Japan
TTITLE1=My Old Kentucky
TTITLE2=Lonely Memories
TTITLE3=Whiskey Train
TTITLE4=Tennessee Moon
TTITLE5=Come With Me
TTITLE6=Was It Just A Game
TTITLE7=Tennessee and You
TTITLE8=Deep Dark River
TTITLE9=I Thank God For Country Music
TTITLE10=Why Me Lord
EXTD=
EXTT0=
EXTT1=
EXTT2=
EXTT3=
EXTT4=
EXTT5=
EXTT6=
EXTT7=
EXTT8=
EXTT9=
EXTT10=
PLAYORDER=
